<svg width="30.000000" height="30.000000" viewBox="0 0 30 30" fill="none" xmlns="http://www.w3.org/2000/svg" xmlns:xlink="http://www.w3.org/1999/xlink">
	<desc>
			Created with Pixso.
	</desc>
	<defs/>
	<path id="Vector" d="M30 15C30 23.28 23.28 30 15 30C6.71 30 0 23.28 0 15C0 6.71 6.71 0 15 0C23.28 0 30 6.71 30 15Z" fill="#0048CE" fill-opacity="1.000000" fill-rule="evenodd"/>
	<path id="Vector" d="M8.52 14.69L15.88 11.65C16.6 11.33 19.06 10.32 19.06 10.32C19.06 10.32 20.2 9.88 20.11 10.95C20.08 11.4 19.82 12.95 19.57 14.62L18.78 19.59C18.78 19.59 18.72 20.32 18.18 20.45C17.64 20.57 16.76 20 16.6 19.88C16.48 19.78 14.23 18.36 13.41 17.66C13.19 17.47 12.94 17.09 13.44 16.65C14.58 15.61 15.94 14.31 16.76 13.49C17.14 13.11 17.52 12.22 15.94 13.3L11.49 16.3C11.49 16.3 10.98 16.62 10.03 16.33C9.09 16.05 7.98 15.67 7.98 15.67C7.98 15.67 7.22 15.19 8.52 14.69Z" fill="#FFFFFF" fill-opacity="1.000000" fill-rule="nonzero"/>
</svg>
