<svg width="30.000000" height="30.000000" viewBox="0 0 30 30" fill="none" xmlns="http://www.w3.org/2000/svg" xmlns:xlink="http://www.w3.org/1999/xlink">
	<desc>
			Created with Pixso.
	</desc>
	<defs/>
	<path id="Vector" d="M30 15C30 23.28 23.28 30 15 30C6.71 30 0 23.28 0 15C0 6.71 6.71 0 15 0C23.28 0 30 6.71 30 15Z" fill="#0048CE" fill-opacity="1.000000" fill-rule="evenodd"/>
	<path id="Vector" d="M11.4 20L11.65 20.16C12.73 20.79 13.97 21.13 15.23 21.13L15.24 21.13C19.11 21.13 22.27 17.99 22.27 14.13C22.27 12.26 21.54 10.5 20.21 9.18C18.88 7.85 17.12 7.12 15.24 7.12C11.36 7.12 8.2 10.26 8.2 14.12C8.2 15.45 8.57 16.74 9.28 17.85L9.44 18.12L8.73 20.7L11.4 20ZM6.7 22.7L7.9 18.34C7.16 17.06 6.77 15.61 6.77 14.12C6.77 9.48 10.57 5.7 15.24 5.7C17.5 5.7 19.63 6.58 21.22 8.17C22.82 9.76 23.7 11.88 23.7 14.13C23.7 18.78 19.9 22.56 15.24 22.56L15.23 22.56C13.82 22.55 12.42 22.2 11.19 21.53L6.7 22.7Z" fill="#FFFFFF" fill-opacity="1.000000" fill-rule="nonzero"/>
	<path id="Vector" d="M13.77 11.3C13.65 11.01 13.51 11 13.39 11C13.29 10.99 13.17 10.99 13.06 10.99C12.94 10.99 12.76 11.04 12.6 11.21C12.44 11.38 12 11.8 12 12.65C12 13.5 12.61 14.32 12.7 14.43C12.78 14.55 13.89 16.34 15.64 17.04C17.1 17.61 17.39 17.5 17.71 17.47C18.02 17.44 18.73 17.05 18.87 16.65C19.01 16.24 19.01 15.9 18.97 15.83C18.93 15.76 18.81 15.71 18.64 15.63C18.47 15.54 17.62 15.12 17.46 15.06C17.31 15.01 17.19 14.98 17.08 15.15C16.96 15.32 16.63 15.71 16.53 15.83C16.43 15.94 16.33 15.96 16.16 15.87C15.98 15.78 15.43 15.6 14.77 15.01C14.26 14.56 13.91 13.99 13.81 13.82C13.71 13.65 13.8 13.55 13.89 13.47C13.97 13.39 14.06 13.27 14.15 13.17C14.23 13.07 14.26 12.99 14.32 12.88C14.38 12.76 14.35 12.66 14.31 12.58C14.26 12.49 13.93 11.64 13.77 11.3L13.77 11.3Z" fill="#FFFFFF" fill-opacity="1.000000" fill-rule="evenodd"/>
</svg>
